<?xml version="1.0" encoding="UTF-8" standalone="no"?>
<svg width="21px" height="21px" viewBox="0 0 21 21" version="1.1" xmlns="http://www.w3.org/2000/svg" xmlns:xlink="http://www.w3.org/1999/xlink" xmlns:sketch="http://www.bohemiancoding.com/sketch/ns">
    <!-- Generator: Sketch 3.0.3 (7892) - http://www.bohemiancoding.com/sketch -->
    <title>Slice 1</title>
    <desc>Created with Sketch.</desc>
    <defs>
        <path id="path-1" d="M-0.144,-0.479 L-0.144,8.284 L-0.059,8.284 C0.454,7.767 0.914,7.189 1.302,6.566 L1.302,-0.479 L-0.144,-0.479 L-0.144,-0.479 Z"></path>
        <path id="path-3" d="M0.32,9.427 C0.32,14.798 4.674,19.154 10.044,19.154 C11.565,19.154 13.004,18.803 14.287,18.179 L14.287,16.409 C13.052,17.165 11.598,17.596 10.044,17.596 C5.531,17.596 1.875,13.942 1.875,9.427 C1.875,4.919 5.531,1.259 10.044,1.259 C11.598,1.259 13.052,1.693 14.287,2.446 L14.287,0.677 C13.004,0.054 11.565,-0.295 10.044,-0.295 C4.674,-0.295 0.32,4.056 0.32,9.427 L0.32,9.427 Z"></path>
        <path id="path-5" d="M-0.129,1.27 C-0.129,2.192 0.616,2.939 1.538,2.939 C2.053,2.939 2.511,2.708 2.819,2.341 C2.357,1.357 1.738,0.466 0.994,-0.303 C0.34,-0.078 -0.129,0.539 -0.129,1.27 L-0.129,1.27 Z"></path>
    </defs>
    <g id="Page-1" stroke="none" stroke-width="1" fill="none" fill-rule="evenodd" sketch:type="MSPage">
        <g id="CiLogo" sketch:type="MSLayerGroup">
            <path d="M16.856,7.521 L16.856,16.284 L16.941,16.284 C17.454,15.767 17.914,15.189 18.302,14.566 L18.302,7.521 L16.856,7.521" id="Fill-1" fill="#FFFFFF" sketch:type="MSShapeGroup"></path>
            <g id="Group-4" transform="translate(17.000000, 8.000000)">
                <mask id="mask-2" sketch:name="Clip 3" fill="white">
                    <use xlink:href="#path-1"></use>
                </mask>
                <g id="Clip-3"></g>
                <path d="M-0.144,-0.479 L1.302,-0.479 L1.302,8.284 L-0.144,8.284 L-0.144,-0.479 Z" id="Fill-2" fill="#FFFFFF" sketch:type="MSShapeGroup" mask="url(#mask-2)"></path>
            </g>
            <path d="M0.32,9.427 C0.32,14.798 4.674,19.154 10.044,19.154 C11.565,19.154 13.004,18.803 14.287,18.179 L14.287,16.409 C13.052,17.165 11.598,17.596 10.044,17.596 C5.531,17.596 1.875,13.942 1.875,9.427 C1.875,4.919 5.531,1.259 10.044,1.259 C11.598,1.259 13.052,1.693 14.287,2.446 L14.287,0.677 C13.004,0.054 11.565,-0.295 10.044,-0.295 C4.674,-0.295 0.32,4.056 0.32,9.427" id="Fill-5" fill="#FFFFFF" sketch:type="MSShapeGroup"></path>
            <g id="Group-8">
                <mask id="mask-4" sketch:name="Clip 7" fill="white">
                    <use xlink:href="#path-3"></use>
                </mask>
                <g id="Clip-7"></g>
                <path d="M0.32,-0.295 L14.287,-0.295 L14.287,19.154 L0.32,19.154 L0.32,-0.295 Z" id="Fill-6" fill="#FFFFFF" sketch:type="MSShapeGroup" mask="url(#mask-4)"></path>
            </g>
            <path d="M15.871,4.27 C15.871,5.192 16.616,5.939 17.538,5.939 C18.053,5.939 18.511,5.708 18.819,5.341 C18.357,4.357 17.738,3.466 16.994,2.697 C16.34,2.922 15.871,3.539 15.871,4.27" id="Fill-9" fill="#FFFFFF" sketch:type="MSShapeGroup"></path>
            <g id="Group-12" transform="translate(16.000000, 3.000000)">
                <mask id="mask-6" sketch:name="Clip 11" fill="white">
                    <use xlink:href="#path-5"></use>
                </mask>
                <g id="Clip-11"></g>
                <path d="M-0.129,-0.303 L2.819,-0.303 L2.819,2.939 L-0.129,2.939 L-0.129,-0.303 Z" id="Fill-10" fill="#FFFFFF" sketch:type="MSShapeGroup" mask="url(#mask-6)"></path>
            </g>
        </g>
    </g>
</svg>