<?xml version="1.0" encoding="UTF-8" standalone="no"?>
<svg width="25px" height="19px" viewBox="0 0 25 19" version="1.1" xmlns="http://www.w3.org/2000/svg" xmlns:xlink="http://www.w3.org/1999/xlink" xmlns:sketch="http://www.bohemiancoding.com/sketch/ns">
    <!-- Generator: Sketch 3.0.3 (7892) - http://www.bohemiancoding.com/sketch -->
    <title>Slice 1</title>
    <desc>Created with Sketch.</desc>
    <defs></defs>
    <g id="Page-1" stroke="none" stroke-width="1" fill="none" fill-rule="evenodd" sketch:type="MSPage">
        <path d="M12.0968116,12.9770284 C12.2291054,12.9922023 12.3636421,13 12.5,13 C14.4329357,13 15.999901,11.4330957 16,9.50018314 L16,9.50018314 C15.7517639,9.68664052 15.467689,9.82796368 15.159959,9.91196908 L12.0968116,12.9770284 L12.0968116,12.9770284 Z M9.03959193,10.0281763 C9.01351808,9.85591641 9,9.67953686 9,9.5 C9,7.56706433 10.5669043,6.00009899 12.4998168,6 C12.2749705,6.29934442 12.1157566,6.65080408 12.0435396,7.0330145 L9.03959193,10.0281763 L9.03959193,10.0281763 Z M19.8190472,5.24997284 C22.9578576,7.12814848 25,9.5 25,9.5 C25,9.5 19.4035597,16 12.5,16 C11.4571269,16 10.4440823,15.8516696 9.4756527,15.5998233 L11.2501954,13.8241731 C11.647,13.9386564 12.0663362,14 12.5,14 C14.9852815,14 17,11.9852815 17,9.5 C17,9.06535287 16.9383779,8.64509836 16.8233935,8.2474964 L19.8190472,5.24997284 L19.8190472,5.24997284 Z M15.652843,3.43426756 C14.6456536,3.16176948 13.5890923,3 12.5,3 C5.59644029,3 0,9.5 0,9.5 C0,9.5 2.07637045,11.9116058 5.25976721,13.7969459 L8.20824491,10.8570918 C8.07296225,10.4288637 8,9.97295248 8,9.5 C8,7.0147185 10.0147185,5 12.5,5 C12.9775822,5 13.4377878,5.07439768 13.8696595,5.21223561 L15.652843,3.43426756 L15.652843,3.43426756 Z M20.9973145,2.98706055 L19.013916,1.0090332 L4.06188965,16.0209961 L6.00048828,18.0710449 L20.9973145,2.98706055 Z" id="Oval-10-copy" fill="#979797" sketch:type="MSShapeGroup"></path>
    </g>
</svg>