<?xml version="1.0" encoding="UTF-8" standalone="no"?>
<svg width="16px" height="16px" viewBox="0 0 16 16" version="1.1" xmlns="http://www.w3.org/2000/svg" xmlns:xlink="http://www.w3.org/1999/xlink" xmlns:sketch="http://www.bohemiancoding.com/sketch/ns">
    <!-- Generator: Sketch 3.0.3 (7892) - http://www.bohemiancoding.com/sketch -->
    <title>Slice 1</title>
    <desc>Created with Sketch.</desc>
    <defs></defs>
    <g id="Page-1" stroke="none" stroke-width="1" fill="none" fill-rule="evenodd" sketch:type="MSPage">
        <path d="M10.3359714,12.2335767 L14.1075655,16 L16,14.1100104 L12.2115736,10.3690717 C12.9201367,9.30999747 13.3333333,8.03658572 13.3333333,6.66666667 C13.3333333,2.98476815 10.3485652,0 6.66666667,0 C2.98476815,0 0,2.98476815 0,6.66666667 C0,10.3485652 2.98476815,13.3333333 6.66666667,13.3333333 C8.02234378,13.3333333 9.28350978,12.9286834 10.3359714,12.2335767 L10.3359714,12.2335767 Z M6.66666667,10.6666667 C8.87580578,10.6666667 10.6666667,8.87580578 10.6666667,6.66666667 C10.6666667,4.45752756 8.87580578,2.66666667 6.66666667,2.66666667 C4.45752756,2.66666667 2.66666667,4.45752756 2.66666667,6.66666667 C2.66666667,8.87580578 4.45752756,10.6666667 6.66666667,10.6666667 Z" id="Path-7-copy-2" fill="#999999" sketch:type="MSShapeGroup"></path>
    </g>
</svg>