<?xml version="1.0" encoding="UTF-8" standalone="no"?>
<svg width="24px" height="24px" viewBox="0 0 24 24" version="1.1" xmlns="http://www.w3.org/2000/svg" xmlns:xlink="http://www.w3.org/1999/xlink" xmlns:sketch="http://www.bohemiancoding.com/sketch/ns">
    <!-- Generator: Sketch 3.0.3 (7892) - http://www.bohemiancoding.com/sketch -->
    <title>Slice 1</title>
    <desc>Created with Sketch.</desc>
    <defs></defs>
    <g id="Page-1" stroke="none" stroke-width="1" fill="none" fill-rule="evenodd" sketch:type="MSPage">
        <path d="M16.4127741,5.04317045 L7.58722586,5.04317045 L12,0 L16.4127741,5.04317045 Z M18.9568295,16.4127741 L18.9568295,7.58722586 L24,12 L18.9568295,16.4127741 Z M7.58722586,18.9568295 L16.4127741,18.9568295 L12,24 L7.58722586,18.9568295 Z M5.04317045,7.58722586 L5.04317045,16.4127741 L0,12 L5.04317045,7.58722586 Z M13.8911889,11.9775298 C13.8911889,10.933055 13.0444749,10.0863409 12,10.0863409 C10.9555251,10.0863409 10.1088111,10.933055 10.1088111,11.9775298 C10.1088111,13.0220047 10.9555251,13.8687187 12,13.8687187 C13.0444749,13.8687187 13.8911889,13.0220047 13.8911889,11.9775298 Z" id="Triangle-1-copy" fill="#777777" sketch:type="MSShapeGroup"></path>
    </g>
</svg>