<?xml version="1.0" encoding="UTF-8" standalone="no"?>
<svg width="24px" height="24px" viewBox="0 0 24 24" version="1.1" xmlns="http://www.w3.org/2000/svg" xmlns:xlink="http://www.w3.org/1999/xlink" xmlns:sketch="http://www.bohemiancoding.com/sketch/ns">
    <!-- Generator: Sketch 3.0.3 (7892) - http://www.bohemiancoding.com/sketch -->
    <title>Slice 1</title>
    <desc>Created with Sketch.</desc>
    <defs></defs>
    <g id="Page-1" stroke="none" stroke-width="1" fill="none" fill-rule="evenodd" sketch:type="MSPage">
        <path d="M15.2936828,18.1233244 L21.1779356,24.0334167 L23.9765288,21.2223116 L18.074229,15.3603661 C19.1253434,13.790069 19.7383388,11.9017226 19.7383388,9.87020335 C19.7383388,4.41233026 15.313859,-0.0121495864 9.85598587,-0.0121495864 C4.39811278,-0.0121495864 -0.0263670724,4.41233026 -0.0263670724,9.87020335 C-0.0263670724,15.3280764 4.39811278,19.7525563 9.85598587,19.7525563 C11.8649305,19.7525563 13.7338666,19.1531086 15.2936828,18.1233244 L15.2936828,18.1233244 Z M9.85598587,15.5172622 C12.9747705,15.5172622 15.5030447,12.988988 15.5030447,9.87020335 C15.5030447,6.75141873 12.9747705,4.22314453 9.85598587,4.22314453 C6.73720124,4.22314453 4.20892705,6.75141873 4.20892705,9.87020335 C4.20892705,12.988988 6.73720124,15.5172622 9.85598587,15.5172622 Z" id="Path-7-copy-3" fill="#777777" sketch:type="MSShapeGroup"></path>
    </g>
</svg>