<?xml version="1.0" encoding="UTF-8" standalone="no"?>
<svg width="26px" height="26px" viewBox="0 0 26 26" version="1.1" xmlns="http://www.w3.org/2000/svg" xmlns:xlink="http://www.w3.org/1999/xlink" xmlns:sketch="http://www.bohemiancoding.com/sketch/ns">
    <!-- Generator: Sketch 3.0.3 (7892) - http://www.bohemiancoding.com/sketch -->
    <title>Slice 1</title>
    <desc>Created with Sketch.</desc>
    <defs></defs>
    <g id="Page-1" stroke="none" stroke-width="1" fill="none" fill-rule="evenodd" sketch:type="MSPage">
        <g id="Session-icon" sketch:type="MSLayerGroup" fill="#FFFFFF">
            <path d="M13.467,25.973 C6.279,25.973 0.432,20.125 0.432,12.937 C0.432,5.749 6.279,-0.098 13.467,-0.098 C20.655,-0.098 26.503,5.749 26.503,12.937 C26.503,20.125 20.655,25.973 13.467,25.973 M13.467,1.21 C7,1.21 1.74,6.471 1.74,12.937 C1.74,19.404 7,24.665 13.467,24.665 C19.934,24.665 25.195,19.404 25.195,12.937 C25.195,6.471 19.934,1.21 13.467,1.21" id="Fill-1" sketch:type="MSShapeGroup"></path>
            <path d="M14.581,13.104 C15.103,12.698 15.446,12.068 15.446,11.357 C15.446,10.127 14.452,9.134 13.223,9.134 C11.994,9.134 10.999,10.127 10.999,11.357 C10.999,12.068 11.34,12.698 11.863,13.104 C10.547,13.644 9.613,14.935 9.613,16.446 L9.613,16.676 C9.613,18.667 16.832,18.667 16.832,16.676 L16.832,16.446 C16.832,14.935 15.899,13.644 14.581,13.104" id="Fill-2" sketch:type="MSShapeGroup"></path>
            <path d="M8.741,16.446 C8.741,15.014 9.415,13.703 10.524,12.869 C10.267,12.415 10.127,11.896 10.127,11.357 C10.127,10.281 10.682,9.332 11.518,8.776 C11.131,8.136 10.432,7.706 9.625,7.706 C8.398,7.706 7.402,8.699 7.402,9.929 C7.402,10.642 7.743,11.27 8.267,11.676 C6.949,12.213 6.018,13.506 6.018,15.018 L6.018,15.247 C6.018,16.08 7.276,16.561 8.743,16.696 C8.742,16.689 8.741,16.684 8.741,16.676 L8.741,16.446" id="Fill-3" sketch:type="MSShapeGroup"></path>
            <path d="M19.532,9.929 C19.532,8.698 18.536,7.706 17.306,7.706 C16.395,7.706 15.616,8.256 15.272,9.044 C15.913,9.612 16.317,10.437 16.317,11.357 C16.317,11.896 16.179,12.414 15.92,12.869 C17.029,13.703 17.704,15.014 17.704,16.446 L17.704,16.675 C17.704,16.695 17.701,16.713 17.7,16.732 C19.363,16.665 20.917,16.171 20.917,15.247 L20.917,15.018 C20.917,13.505 19.986,12.212 18.667,11.675 C19.188,11.27 19.532,10.643 19.532,9.929 Z" id="Fill-4" sketch:type="MSShapeGroup"></path>
        </g>
    </g>
</svg>