<?xml version="1.0" encoding="UTF-8" standalone="no"?>
<svg width="25px" height="13px" viewBox="0 0 25 13" version="1.1" xmlns="http://www.w3.org/2000/svg" xmlns:xlink="http://www.w3.org/1999/xlink" xmlns:sketch="http://www.bohemiancoding.com/sketch/ns">
    <!-- Generator: Sketch 3.0.3 (7892) - http://www.bohemiancoding.com/sketch -->
    <title>Slice 1</title>
    <desc>Created with Sketch.</desc>
    <defs></defs>
    <g id="Page-1" stroke="none" stroke-width="1" fill="none" fill-rule="evenodd" sketch:type="MSPage">
        <path d="M16,6.50018314 C15.999901,8.43309569 14.4329357,10 12.5,10 C10.5670033,10 9,8.43299672 9,6.5 C9,4.56706433 10.5669043,3.00009899 12.4998168,3 C12.1859724,3.41783026 12,3.93719703 12,4.5 C12,5.88071194 13.1192881,7 14.5,7 C15.062803,7 15.5821697,6.81402761 16,6.50018314 Z M12.5,13 C19.4035597,13 25,6.5 25,6.5 C25,6.5 19.4035597,0 12.5,0 C5.59644029,0 0,6.5 0,6.5 C0,6.5 5.59644029,13 12.5,13 Z M12.5,11 C14.9852815,11 17,8.9852815 17,6.5 C17,4.0147185 14.9852815,2 12.5,2 C10.0147185,2 8,4.0147185 8,6.5 C8,8.9852815 10.0147185,11 12.5,11 Z" id="Oval-11" fill="#979797" sketch:type="MSShapeGroup"></path>
    </g>
</svg>