<?xml version="1.0" encoding="UTF-8" standalone="no"?>
<svg width="304px" height="304px" viewBox="0 0 304 304" version="1.1" xmlns="http://www.w3.org/2000/svg" xmlns:xlink="http://www.w3.org/1999/xlink" xmlns:sketch="http://www.bohemiancoding.com/sketch/ns">
    <!-- Generator: Sketch 3.0.3 (7892) - http://www.bohemiancoding.com/sketch -->
    <title>Slice 1</title>
    <desc>Created with Sketch.</desc>
    <defs></defs>
    <g id="Page-1" stroke="none" stroke-width="1" fill="none" fill-rule="evenodd" sketch:type="MSPage">
        <g id="popup" sketch:type="MSLayerGroup">
            <path d="M152.431,61.87 C108.242,61.87 62.427,107.689 62.427,151.885 C62.427,196.072 108.242,241.879 152.431,241.879 C196.609,241.879 242.429,196.071 242.429,151.885 C242.429,107.689 196.609,61.87 152.431,61.87 L152.431,61.87 Z M151.575,196.871 C126.718,196.871 106.572,176.728 106.572,151.878 C106.572,127.026 126.718,106.876 151.575,106.876 C176.421,106.876 196.572,127.026 196.572,151.878 C196.571,176.729 176.421,196.871 151.575,196.871 L151.575,196.871 Z" id="Shape" fill="#89E5FF" sketch:type="MSShapeGroup"></path>
            <path d="M152.018,24.961 C87.672,24.961 25.52,87.119 25.52,151.474 C25.52,215.819 87.672,277.958 152.018,277.958 C216.349,277.958 278.506,215.818 278.506,151.474 C278.506,87.119 216.349,24.961 152.018,24.961 L152.018,24.961 Z M152.512,231.463 C108.323,231.463 72.509,195.656 72.509,151.469 C72.509,107.275 108.323,71.455 152.512,71.455 C196.69,71.455 232.509,107.274 232.509,151.469 C232.509,195.656 196.69,231.463 152.512,231.463 L152.512,231.463 Z" id="Shape" fill="#6FDFFF" sketch:type="MSShapeGroup"></path>
            <path d="M152.02,-0.356 C68.166,-0.356 0.205,67.614 0.205,151.478 C0.205,235.329 68.166,303.275 152.02,303.275 C235.853,303.275 303.822,235.329 303.822,151.478 C303.821,67.613 235.852,-0.356 152.02,-0.356 L152.02,-0.356 Z M151.521,267.957 C87.175,267.957 35.024,215.818 35.024,151.474 C35.024,87.12 87.175,34.962 151.521,34.962 C215.852,34.962 268.008,87.119 268.008,151.474 C268.009,215.818 215.853,267.957 151.521,267.957 L151.521,267.957 Z" id="Shape" fill="#56DAFF" sketch:type="MSShapeGroup"></path>
        </g>
    </g>
</svg>