<?xml version="1.0" encoding="UTF-8" standalone="no"?>
<svg width="1400px" height="24px" viewBox="0 0 1400 24" version="1.1" xmlns="http://www.w3.org/2000/svg" xmlns:xlink="http://www.w3.org/1999/xlink" xmlns:sketch="http://www.bohemiancoding.com/sketch/ns">
    <!-- Generator: Sketch 3.0.3 (7892) - http://www.bohemiancoding.com/sketch -->
    <title>Slice 1</title>
    <desc>Created with Sketch.</desc>
    <defs></defs>
    <g id="Page-1" stroke="none" stroke-width="1" fill="none" fill-rule="evenodd" sketch:type="MSPage">
        <path d="M1393.01441,12.1993043 C1392.57485,11.8998261 1392.13632,11.6003478 1391.69882,11.301913 C1391.6175,10.1676522 1391.53824,9.0333913 1391.45794,7.89913043 C1389.94368,9.26817391 1388.51382,10.989913 1386.77309,11.4177391 C1385.66441,11.690087 1383.71368,9.528 1382.53088,8.12452174 C1381.05162,6.37043478 1379.97279,4.26782609 1379.26353,3.16382609 C1374.73309,5.24347826 1370.80279,7.04765217 1366.45353,9.04382609 C1364.86,12.6646957 1368.67706,18.3954783 1363.71529,22.4577391 C1362.02088,16.2928696 1360.52206,10.8375652 1359.02426,5.38226087 C1358.37368,5.44382609 1357.72206,5.5053913 1357.07044,5.56486957 C1356.42603,7.99304348 1355.78162,10.4222609 1355.13824,12.8493913 C1354.75941,12.7888696 1354.38059,12.7293913 1354.00074,12.6678261 C1353.61779,10.9366957 1353.23588,9.20556522 1352.71088,6.82330435 C1350.69015,7.80834783 1349.01838,8.62330435 1347.31985,9.44973913 C1343.46882,5.00765217 1340.25603,8.29043478 1336.98456,10.9617391 C1337.02265,10.3346087 1337.06176,9.70643478 1337.10088,9.07930435 C1333.59059,8.70156522 1330.08029,8.32486957 1326.17368,7.90330435 C1326.17368,11.3342609 1326.84794,14.0368696 1325.99559,16.0914783 C1325.02897,18.4246957 1323.01132,21.2525217 1320.87632,21.8911304 C1318.54676,22.5871304 1315.02618,21.8775652 1315.08279,17.5147826 C1315.11162,15.3255652 1314.73485,13.0768696 1314.17074,10.9565217 C1313.87324,9.83582609 1312.96529,8.51686957 1311.98426,8.06608696 C1311.21941,7.71443478 1309.59809,8.24556522 1308.91662,8.94469565 C1307.11618,10.7885217 1305.61941,12.9391304 1303.66044,15.3975652 C1302.42412,13.1363478 1301.63662,11.6963478 1300.49294,9.60417391 C1300.10485,11.930087 1299.7425,14.0953043 1299.39456,16.1801739 C1299.08676,12.981913 1298.77794,9.7826087 1298.47015,6.58434783 C1298.255,6.62295652 1298.03985,6.6626087 1297.82471,6.70121739 C1297.09176,11.4855652 1296.35882,16.269913 1295.62588,21.0532174 C1295.08029,20.9937391 1294.53368,20.9342609 1293.98706,20.8747826 C1293.73074,15.5791304 1293.47441,10.2845217 1293.21809,4.98886957 C1292.73118,4.95026087 1292.24426,4.9106087 1291.75838,4.872 C1291.00176,7.0466087 1290.24618,9.22226087 1289.4175,11.6045217 C1282.56368,12.6751304 1283.82985,4.33773913 1280.82706,3.15026087 C1275.60485,5.4386087 1271.34206,7.30852174 1266.84868,9.27756522 C1266.10853,7.46713043 1265.69162,6.44869565 1265.22118,5.30086957 C1261.44426,9.75130435 1260.91309,9.74608696 1259.09721,5.76417391 C1255.625,6.72730435 1252.19294,7.68 1247.73147,8.91756522 C1246.62279,11.8163478 1245.07971,15.8473043 1242.96015,21.3808696 C1242.02235,16.4744348 1241.34294,12.9245217 1240.66456,9.37565217 C1239.80294,13.2302609 1239.525,17.1015652 1239.24809,20.9718261 C1238.77662,21.0490435 1238.30515,21.1262609 1237.83265,21.2045217 C1236.80838,14.8862609 1235.64206,8.65773913 1229.32868,5.25078261 C1226.60485,10.5193043 1230.9325,16.8761739 1225.11015,22.176 C1223.88515,17.5106087 1222.96588,14.0097391 1222.28647,11.4208696 C1222.16706,11.9509565 1221.83559,13.4170435 1221.50412,14.8841739 C1220.00324,13.682087 1219.70368,12.6302609 1219.57706,11.5565217 C1219.42882,10.2897391 1219.42882,9.00313043 1219.36397,7.72591304 C1218.41074,8.38330435 1218.46838,9.37252174 1218.01338,9.80452174 C1217.41324,10.3753043 1216.40853,10.5078261 1215.01779,11.0452174 C1214.97971,11.3488696 1214.75529,13.0841739 1214.34147,16.3033043 C1213.00324,14.1631304 1212.28574,12.6626087 1212.07676,12.7314783 C1207.69353,14.1892174 1204.67632,12.816 1203.14971,7.97530435 C1198.97029,10.3763478 1194.8825,12.7231304 1190.76382,15.0886957 C1189.27735,11.2664348 1188.005,7.99513043 1186.70074,4.64347826 C1184.77265,6.83791304 1184.68103,12.4278261 1180.39559,7.89286957 C1179.79441,10.3867826 1179.12221,13.1791304 1178.09382,17.4490435 C1176.6825,14.6963478 1176.04426,13.4504348 1175.31029,12.0166957 C1173.58603,14.9133913 1178.33882,21.5718261 1172.15,21.0365217 C1169.74324,14.9853913 1168.11265,10.1906087 1165.74088,5.81008696 C1165.4475,5.26852174 1161.19809,6.92869565 1158.53912,7.63408696 C1156.9075,6.59791304 1154.61809,5.14330435 1150.92662,2.79965217 C1150.45206,7.57773913 1150.01765,11.9593043 1149.59868,16.1906087 C1149.29397,12.0615652 1149.07676,7.90852174 1146.78118,4.32313043 C1146.33235,4.39826087 1145.88456,4.47234783 1145.43574,4.54852174 C1145.10426,6.56556522 1144.77176,8.58365217 1144.44029,10.6017391 C1142.85294,9.59686957 1142.57706,8.0786087 1141.69485,7.48695652 C1140.38338,6.60313043 1137.58029,5.55547826 1137.25294,5.99373913 C1134.28,9.96626087 1129.55603,6.8066087 1126.12397,10.346087 C1125.99324,8.07026087 1125.96235,7.05286957 1125.86868,6.04173913 C1125.79044,5.18713043 1125.64015,4.33878261 1125.51971,3.4893913 C1123.61735,11.2998261 1122.25338,13.2041739 1118.46412,13.2553043 C1117.3925,10.7895652 1116.39294,8.48869565 1115.17824,5.69426087 C1114.16529,11.4678261 1113.24191,16.730087 1112.3175,21.9933913 C1111.90779,22.1676522 1111.49706,22.3387826 1111.08735,22.512 C1109.48456,20.1067826 1107.88279,17.7005217 1106.76588,16.0246957 C1106.83382,15.8577391 1106.37985,16.9627826 1105.44721,19.2302609 C1102.2025,13.1728696 1099.52912,8.184 1096.33382,2.2173913 C1096.6025,11.613913 1091.50074,17.5815652 1085.69074,23.4448696 C1083.97985,20.6973913 1082.48309,18.2942609 1081.30647,16.4034783 C1079.80662,18.1189565 1078.3325,19.8052174 1076.16147,22.2886957 C1074.08721,4.96382609 1074.47632,5.51478261 1062.76471,5.75373913 C1060.56485,9.83478261 1058.56882,13.536 1056.57382,17.2382609 C1056.11779,17.0514783 1055.66279,16.8657391 1055.20779,16.6810435 C1055.03691,15.0302609 1054.86706,13.3794783 1054.70029,11.7725217 C1051.76853,14.9426087 1051.07574,13.1342609 1050.69382,9.97147826 C1050.42412,7.73426087 1049.76529,5.54817391 1049.28044,3.33913043 C1048.85632,3.43095652 1048.43118,3.52382609 1048.00603,3.61773913 C1047.38426,4.96069565 1046.76147,6.30469565 1045.84632,8.28417391 C1044.56265,5.77982609 1043.67735,4.05495652 1042.71279,2.17252174 C1039.26426,3.62504348 1036.17294,4.92730435 1033.70956,5.96556522 C1030.04279,3.87756522 1026.63956,1.93878261 1023.23529,0 C1020.58765,2.28313043 1020.07603,4.59130435 1019.37294,6.83791304 C1019.06618,7.82086957 1018.36721,8.6786087 1017.84735,9.59373913 C1016.90235,8.77252174 1015.64441,8.12347826 1015.08853,7.08730435 C1014.30824,5.63165217 1014.04882,3.888 1013.53103,2.14434783 C1011.74294,6.48626087 1010.16588,10.3158261 1008.29029,14.8685217 C1006.45588,12.8274783 1005.48,11.7422609 1004.09441,10.202087 C1002.96206,12.984 1001.93779,15.4946087 1000.94647,17.928 C998.709559,15.8212174 996.707353,13.9356522 994.705147,12.0490435 C992.837794,14.8330435 990.970441,17.618087 988.483382,21.3245217 C987.626912,18.626087 986.771471,15.9255652 985.726618,12.6323478 C984.016765,15.336 982.580735,17.6076522 981.068529,19.9993043 C979.979412,19.1655652 978.841912,18.2942609 977.513971,17.2768696 C977.27,18.933913 977.064118,20.3353043 976.858235,21.7346087 C976.318824,21.7721739 975.778382,21.8118261 975.238971,21.8493913 C974.895147,18.6855652 974.551324,15.5206957 974.238382,12.6406957 C972.295882,12.0135652 970.5325,11.4448696 968.639412,10.8344348 C968.114412,12.2441739 967.628529,13.5506087 967.045882,15.1147826 C963.1825,9.5373913 948.711029,8.87373913 943.933529,13.3064348 C942.499559,12.3172174 941.284853,11.0702609 939.816912,10.5433043 C936.030735,9.18052174 932.132353,8.136 927.407353,6.69913043 C924.115294,8.99165217 919.52,11.352 914.227794,7.40243478 C913.358971,10.5798261 912.617794,13.2907826 911.875588,15.9996522 C911.373235,15.9213913 910.872941,15.8431304 910.369559,15.7648696 C910.063824,14.2747826 909.757059,12.7836522 909.449265,11.2946087 C909.432794,10.9064348 909.416324,10.5297391 909.398824,10.1269565 C909.349412,10.2073043 909.303088,10.2761739 909.254706,10.3513043 C909.008676,9.15547826 908.762647,7.9586087 908.516618,6.76278261 C907.941176,8.56069565 907.941176,10.3022609 907.941176,12.0448696 C905.084559,14.7714783 904.129265,8.77669565 901.553676,9.98295652 C900.780588,12.6761739 900.020882,15.3224348 899.261176,17.9676522 C897.516324,15.0636522 897.146765,12.1951304 896.627941,8.17669565 C895.097206,10.5944348 894.373529,11.736 893.737353,12.7408696 C891.814412,10.6163478 890.145735,8.77043478 887.987059,6.384 C887.628824,9.68869565 887.406471,11.7276522 887.184118,13.7666087 C885.321912,12.432 884.686765,11.0723478 884.051618,9.7106087 C882.740147,11.5033043 882.989265,13.3857391 882.372647,14.9081739 C881.711765,16.538087 880.234559,17.8278261 878.195294,20.4469565 C877.962647,16.704 878.323971,14.4532174 877.550882,12.7241739 C876.975441,11.4375652 875.029853,10.4754783 873.507353,10.0278261 C872.313235,9.67617391 870.829853,10.3335652 868.666029,10.6674783 C867.164118,14.4135652 865.823824,10.178087 863.716618,7.69252174 C863.334706,13.5161739 863.011471,18.4403478 862.691324,23.3269565 C860.585147,21.9641739 861.545588,19.0768696 861.263529,16.8834783 C860.796176,17.9467826 860.310294,19.0486957 859.825441,20.1526957 C859.423971,20.061913 859.0225,19.9711304 858.622059,19.8803478 C858.417206,17.7547826 858.211324,15.6292174 858.034265,13.7937391 C857.782059,15.6897391 857.493824,17.8643478 857.204559,20.04 C855.378382,17.8184348 854.972794,15.6344348 854.287206,11.9426087 C853.709706,14.5450435 853.459559,15.674087 853.141471,17.1130435 C851.220588,16.4347826 849.685735,15.8932174 848.174559,15.36 C847.983088,13.082087 847.811176,11.0452174 847.637206,8.976 L828.908088,8.976 C828.679559,8.77773913 827.862206,7.51095652 827.191029,7.58608696 C823.036324,8.05043478 820.324853,6.43304348 818.101324,2.39478261 C817.348824,8.26747826 816.597353,14.1401739 815.843824,20.0128696 C813.790147,16.4744348 812.7875,12.9881739 811.819853,9.62504348 C811.326765,10.7071304 810.8275,11.8017391 810.328235,12.8963478 C809.97,12.7815652 809.610735,12.6678261 809.2525,12.5551304 C808.964265,10.6434783 808.673971,8.73286957 808.369265,6.72417391 C806.288824,7.68417391 804.680882,8.58052174 802.968971,9.16173913 C801.788235,9.5613913 799.821029,10.1154783 799.325882,9.56556522 C798.023676,8.11304348 797.578971,5.88104348 796.308676,4.38156522 C795.466618,3.38713043 793.789706,3.12104348 792.669706,2.61182609 C791.692794,4.5026087 790.871324,6.09286957 790.051912,7.68313043 C789.8625,7.09773913 789.675147,6.51234783 789.488824,5.928 C784.458088,6.20765217 779.427353,6.48834783 773.842794,6.79930435 C773.683235,8.69008696 773.583382,10.5266087 773.36,12.3464348 C773.000735,15.2775652 769.3,17.2518261 768.137794,15.1335652 C766.388824,11.9467826 764.405147,13.682087 762.585147,13.9565217 C759.693529,14.3926957 756.871912,15.2911304 753.753824,16.0591304 C752.998235,12.6615652 752.316765,9.59165217 751.600294,6.36626087 C748.676765,9.38921739 745.724412,8.71721739 743.893088,5.34991304 C742.159559,7.51826087 740.273676,9.87756522 738.388824,12.2358261 C737.954412,11.9624348 737.52,11.690087 737.086618,11.4177391 C736.930147,9.73043478 736.772647,8.04417391 736.744853,7.74991304 C735.628971,8.7213913 734.125,10.8354783 732.185588,11.397913 C731.118088,11.7078261 729.080882,9.60730435 727.901176,8.22469565 C726.400294,6.46643478 725.327647,4.3346087 724.588529,3.17843478 C720.134265,5.2173913 716.196765,7.02052174 711.745588,9.05843478 C710.313676,12.6553043 713.690147,18.314087 708.912647,22.9283478 C706.524412,16.5610435 708.173529,9.77634783 702.2575,5.03791304 C701.596618,8.0786087 701.079853,10.4566957 700.563088,12.8326957 C700.147206,12.7867826 699.731324,12.7408696 699.315441,12.6949565 C698.927353,10.9711304 698.539265,9.24730435 698.006029,6.88069565 C696.051176,7.79895652 694.369118,8.58678261 692.382353,9.5186087 C688.773235,4.44 685.607794,8.2466087 682.506176,10.8354783 C679.132794,6.38295652 675.311618,8.14747826 671.468824,8.93843478 C671.468824,11.6024348 672.128676,14.1610435 671.301029,16.0466087 C670.276765,18.381913 668.337353,21.2431304 666.206471,21.888 C663.908824,22.584 660.349118,21.909913 660.383088,17.546087 C660.399559,15.3537391 660.027941,13.106087 659.466912,10.9836522 C659.168382,9.85878261 658.277941,8.53043478 657.3,8.0733913 C656.535147,7.71443478 654.899412,8.22782609 654.218971,8.92486957 C652.416471,10.773913 650.922794,12.9318261 648.961765,15.4006957 C647.724412,13.1394783 646.933824,11.6932174 645.789118,9.60104348 C645.4,11.928 645.037647,14.0963478 644.688676,16.1833043 C644.380882,12.9850435 644.073088,9.78469565 643.765294,6.58643478 C643.548088,6.624 643.331912,6.6626087 643.115735,6.70017391 C642.386912,11.4845217 641.657059,16.2678261 640.928235,21.0521739 C640.375441,20.9895652 639.821618,20.9269565 639.267794,20.8633043 C639.021765,15.5707826 638.774706,10.2772174 638.528676,4.98469565 C638.039706,4.94191304 637.549706,4.90017391 637.060735,4.8573913 C636.301029,7.02991304 635.541324,9.2013913 634.701324,11.6024348 C627.853676,12.6991304 629.115735,4.37530435 626.118088,3.16069565 C620.928824,5.43547826 616.663971,7.30643478 612.154118,9.28486957 C611.420147,7.488 611.004265,6.46956522 610.348529,4.8626087 C608.136324,8.88730435 605.930294,11.208 604.371765,5.89565217 C600.644265,6.87026087 597.359412,7.73008696 593.0575,8.856 C591.933382,11.7892174 590.389265,15.8222609 588.259412,21.381913 C587.316471,16.4827826 586.631912,12.9224348 585.947353,9.36208696 C585.006471,11.3238261 585.103235,13.3033043 584.978676,15.2692174 C584.856176,17.2048696 584.508235,19.1248696 584.259118,21.050087 C579.082206,5.38852174 576.763971,4.14469565 567.946029,6.10852174 C567.451912,8.27895652 567.102941,10.4817391 566.403971,12.5645217 C566.111618,13.4389565 565.078088,14.0577391 564.381176,14.7933913 C563.854118,13.8897391 563.164412,13.0413913 562.839118,12.0688696 C562.431471,10.8490435 562.322353,9.52695652 562.083529,8.24973913 C561.717059,8.2946087 561.350588,8.33843478 560.983088,8.38330435 C560.28,11.9593043 559.576912,15.5342609 558.873824,19.1102609 C558.524853,19.0006957 558.176912,18.8921739 557.827941,18.7836522 C556.019265,14.4448696 554.209559,10.106087 552.400882,5.76730435 C552.088971,5.88730435 551.777059,6.00730435 551.465147,6.12730435 C551.068824,8.3426087 550.671471,10.5589565 550.282353,12.7314783 C548.249265,10.6476522 546.751471,7.85530435 545.327794,7.89286957 C541.542647,7.992 537.779118,8.98330435 533.668676,9.82121739 C532.828676,6.49356522 530.229412,5.6253913 526.5925,7.57565217 C526.311471,10.0330435 526.040735,12.4048696 525.77,14.7756522 C524.085882,13.5412174 523.821324,12.3453913 523.679265,11.136 C523.238676,7.39826087 519.839559,4.56208696 516.509412,5.75686957 C512.186912,7.30643478 508.066176,9.432 503.670588,11.3937391 C502.871765,10.0330435 501.945294,8.45321739 501.107353,7.02469565 C499.080441,9.24730435 497.150294,11.3645217 494.69,14.0629565 C493.741912,12.338087 492.792794,10.610087 492.413971,9.92034783 C487.417206,10.1634783 482.190882,11.9196522 478.657941,10.1676522 C475.133235,8.41773913 473.394559,9.4173913 471.009412,10.2678261 C470.743824,13.7895652 470.512206,16.8584348 470.281618,19.9262609 C468.234118,15.578087 467.991176,11.2445217 467.747206,6.90886957 C465.817059,10.5589565 465.3425,14.2330435 464.867941,17.9071304 C464.314118,17.8674783 463.760294,17.8278261 463.206471,17.7871304 L463.206471,6.76904348 C459.581912,9.57078261 456.6275,11.856 453.399265,14.3509565 C452.978235,13.0424348 452.959706,12.4288696 452.646765,12.1033043 C450.758824,10.130087 449.009853,6.98921739 446.818235,6.61252174 C444.175735,6.15965217 441.792647,8.20695652 441.710294,12.1273043 C441.653676,14.8361739 439.935588,17.5085217 438.960735,20.1965217 C438.517059,20.1130435 438.073382,20.0295652 437.629706,19.946087 C436.553971,14.162087 435.479265,8.37913043 434.135882,1.15513043 C431.015735,5.93321739 428.858088,9.23582609 426.147647,13.3857391 C425.985,9.91930435 425.860441,7.26573913 425.728676,4.42643478 C423.183971,5.87686957 419.916618,6.63756522 418.814118,8.62852174 C417.188676,11.5648696 417.105294,15.3798261 416.364118,18.8191304 C415.868971,18.9286957 415.373824,19.0382609 414.877647,19.1488696 C413.887353,14.6086957 412.898088,10.0695652 411.9675,5.80173913 C405.314412,6.16069565 406.321176,11.3718261 404.676176,16.1373913 C403.751765,13.7822609 403.320441,12.6845217 402.979706,11.8153043 C402.697647,12.2765217 402.280735,12.962087 401.862794,13.6466087 C400.987794,12.458087 400.113824,11.2674783 399.021618,9.7826087 C397.211912,10.128 395.110882,10.5307826 392.558971,11.0191304 C391.696324,7.1133913 389.498529,8.39582609 386.953824,10.658087 C385.906912,11.5888696 384.123971,12.9766957 383.291176,12.6323478 C377.6675,10.2970435 373.959559,13.6121739 369.702941,17.3655652 C369.419853,14.6149565 369.202647,12.4946087 368.940147,9.94226087 C365.944559,13.0549565 364.194559,11.9446957 363.275294,9.60104348 C362.148088,10.2125217 361.032206,10.3972174 359.915294,10.5704348 C357.35,10.968 354.414118,9.12 353.015147,13.8417391 C352.142206,16.7853913 349.79,19.2813913 347.624118,21.8316522 C347.282353,16.706087 349.204265,10.9575652 343.671176,6.99652174 C342.469853,14.2528696 341.707059,14.9363478 337.6625,12.6448696 C337.011912,13.778087 336.362353,14.9102609 335.718971,16.0330435 C333.939118,12.7669565 332.461912,10.0528696 330.715,6.84626087 C329.204853,11.4615652 327.980882,15.2003478 326.757941,18.938087 C324.122647,15.2473043 323.244559,11.6097391 322.2275,7.39826087 C316.314559,8.08069565 310.245147,8.78191304 303.654853,9.54365217 C303.570441,9.27026087 303.155588,7.93565217 302.551324,5.98956522 C300.788971,7.52765217 299.522794,8.63373913 299.059559,9.03756522 C296.855588,7.6466087 294.829706,5.45217391 293.7025,5.85391304 C291.551029,6.61982609 289.912206,8.86434783 287.567206,10.9304348 C284.454265,8.18921739 282.423235,10.5871304 281.459706,15.1502609 C276.250882,8.70886957 274.626471,8.35408696 272.265,12.0135652 C270.053824,11.3081739 268.173088,10.7092174 266.291324,10.1092174 C265.726176,15.0250435 262.649265,10.7551304 261.075294,11.2601739 C260.739706,14.4125217 260.441176,17.2111304 260.142647,20.0097391 C256.085735,10.6706087 254.567353,8.94052174 248.088235,9.82434783 C247.315147,9.93391304 246.702647,10.029913 246.029412,10.1509565 L246.029412,10.5547826 C241.930294,12.1001739 238.579559,13.3627826 235.233971,14.6233043 C235.185588,15.192 235.137206,15.7606957 235.089853,16.3293913 C233.391324,14.4667826 231.691765,12.6031304 230.675735,11.4897391 L213.851029,11.4897391 C213.15,14.7297391 212.461324,17.9123478 211.772647,21.096 C209.068382,16.3773913 208.151176,11.6055652 207.329706,7.33147826 C199.230294,5.73078261 199.782059,12.7690435 197.847794,17.2946087 C197.442206,17.1078261 197.037647,16.92 196.632059,16.7321739 C196.440588,13.7467826 196.250147,10.7603478 196.057647,7.74573913 C186.932941,7.67791304 191.358382,16.3502609 188.040588,21.3433043 C186.978235,16.4431304 186.223676,12.962087 185.469118,9.48208696 C184.812353,9.36834783 184.154559,9.2546087 183.497794,9.14086957 C182.0175,12.8055652 180.538235,16.4692174 178.656471,21.1325217 C177.838088,16.9972174 177.259559,14.0692174 176.694412,11.2111304 C174.308235,11.2111304 172.073382,11.2194783 169.838529,11.1944348 C169.661471,11.1923478 162.623382,9.30156522 162.523529,9.39652174 C158.8475,12.9266087 155.957941,11.5074783 153.301029,6.73252174 C152.742059,9.82956522 152.385882,11.808 151.891765,14.544 C149.644559,10.8313043 147.939853,8.01495652 145.744118,4.38678261 C144.205147,7.23130435 143.2375,9.02191304 142.093824,11.1370435 C141.001618,9.76695652 140.241912,8.81426087 138.886176,7.1133913 C138.475441,10.1561739 138.423971,12.3902609 137.773382,14.4292174 C137.517059,15.2316522 135.924559,15.5968696 134.940441,16.1613913 C134.694412,15.7241739 134.448382,15.2869565 134.202353,14.8507826 C133.486912,16.2511304 132.770441,17.6504348 131.449706,20.234087 C130.545882,15.4403478 129.880882,11.9144348 129.215882,8.38956522 C128.695,8.34782609 128.175147,8.30713043 127.654265,8.2653913 C126.662941,9.77947826 125.671618,11.2946087 124.3025,13.3878261 C123.201029,10.7405217 122.335294,8.66191304 121.604412,6.90469565 C114.991471,6.27756522 113.831324,9.87443478 114.489118,15.1283478 C114.600294,16.0142609 113.880735,17.0066087 113.545147,17.9488696 C113.265147,17.8998261 112.985147,17.8507826 112.706176,17.8006957 C111.944412,13.6987826 111.183676,9.59791304 110.565,6.26608696 C102.711618,5.08069565 107.040294,12.0250435 103.173824,14.2685217 C102.889706,12.0302609 102.673529,10.3356522 102.521176,9.13356522 C100.058824,9.00834783 97.6747059,8.88730435 94.7058824,8.736 L94.7058824,16.9325217 C94.3363235,17.5210435 93.9194118,18.1846957 93.4355882,18.9558261 C92.7747059,16.8813913 92.4185294,15.7648696 92.1858824,15.0354783 C91.2872059,15.6532174 90.2794118,16.3471304 88.9205882,17.2810435 C88.2720588,13.4587826 87.7244118,10.226087 87.22,7.25217391 C85.2527941,9.29321739 83.8033824,10.7947826 81.7332353,12.9433043 C81.6086765,14.450087 81.3822059,17.2017391 81.1557353,19.9523478 C80.5926471,19.9857391 80.0285294,20.018087 79.4644118,20.0504348 C79.2348529,18.2253913 79.0052941,16.4003478 78.82,14.9342609 C78.435,15.7867826 77.9192647,16.9262609 76.9619118,19.0455652 C75.9088235,14.6556522 75.1882353,11.6473043 74.3585294,8.19234783 C73.2416176,11.4135652 72.45,13.6966957 71.8272059,15.4935652 C66.9951471,11.3269565 63.0576471,7.93252174 58.8236765,4.28034783 C57.8622059,4.55895652 56.0030882,5.09426087 54.1161765,5.64 C53.8526471,9.04695652 53.5891176,12.4445217 53.3255882,15.842087 C51.6322059,14.7610435 51.2667647,13.6413913 50.9980882,12.816 C50.6635294,13.6873043 50.2332353,14.8111304 49.8029412,15.933913 C47.8172059,12.8128696 47.1326471,9.69286957 46.4480882,6.57286957 C45.9395588,6.51026087 45.4310294,6.44556522 44.9225,6.38086957 C44.2317647,10.4869565 43.54,14.592 42.7597059,19.2292174 C40.5217647,18.7283478 38.2961765,18.2306087 36.2589706,17.7746087 C36.0242647,17.0890435 35.8554412,16.778087 35.8163235,16.4535652 C34.9886765,9.57078261 35.0020588,9.63965217 28.5630882,10.6382609 C27.3380882,10.8281739 25.0960294,10.5913043 24.8520588,9.95165217 C23.0011765,5.09843478 21.5054412,8.05147826 19.7986765,9.94434783 C19.4085294,10.3773913 18.6704412,10.488 18.0929412,10.7467826 C17.3177941,9.25147826 16.66,7.98156522 15.6347059,6.00313043 C13.2619118,9.36208696 11.2710294,12.1794783 8.75720588,15.7366957 C6.13941176,15.5666087 2.33573529,15.3766957 0,11.4782609 L0,24 L94.7058824,24 L246.029412,24 L345.882353,24 L532.205882,24 L643.382353,24 L862.647059,24 L907.941176,24 L1148.82353,24 L1298.08824,24 L1400,24 L1400,6.26086957 C1399.38647,5.85495652 1398.77397,5.44695652 1398.72456,5.41565217 C1396.86338,7.62573913 1394.93941,9.912 1393.01441,12.1993043 Z" id="Fill-2" fill="#289DFE" sketch:type="MSShapeGroup"></path>
    </g>
</svg>